<?xml version="1.0" encoding="iso-8859-1"?>
<!-- Generator: Adobe Illustrator 19.0.0, SVG Export Plug-In . SVG Version: 6.00 Build 0)  -->
<svg version="1.1" id="Capa_1" xmlns="http://www.w3.org/2000/svg" xmlns:xlink="http://www.w3.org/1999/xlink" x="0px" y="0px"
	 viewBox="0 0 64 64" style="enable-background:new 0 0 64 64;" xml:space="preserve">
<g>
	<path d="M54.581,38.028c-0.683-1.597-2.148-2.727-3.863-2.977C49.867,32.081,47.159,30,44,30c-3.619,0-6.605,2.76-6.964,6.285
		C34.074,37.143,32,39.848,32,43c0,3.859,3.14,7,7,7h15c3.309,0,6-2.691,6-6C60,40.888,57.618,38.321,54.581,38.028z M54,48H39
		c-2.757,0-5-2.243-5-5c0-2.449,1.753-4.521,4.169-4.925C38.651,37.994,39,37.488,39,37c0-2.757,2.243-5,5-5
		c2.451,0,4.522,1.755,4.925,4.173c0.081,0.483,0.553,0.828,1.042,0.828c1.373-0.063,2.585,0.918,2.927,2.26
		c0.113,0.443,0.513,0.753,0.969,0.753c0.034,0.001,0.112-0.006,0.176-0.014C56.227,40.021,58,41.808,58,44
		C58,46.206,56.206,48,54,48z"/>
	<path d="M46,38v2c1.654,0,3,1.346,3,3h2C51,40.243,48.757,38,46,38z"/>
	<path d="M22,33c3.309,0,6-2.691,6-6c0-3.112-2.382-5.679-5.419-5.972c-0.683-1.597-2.148-2.726-3.863-2.976
		C17.867,15.081,15.159,13,12,13c-3.619,0-6.605,2.76-6.964,6.285C2.074,20.143,0,22.848,0,26c0,3.859,3.14,7,7,7H22z M2,26
		c0-2.449,1.753-4.521,4.169-4.925C6.651,20.994,7,20.488,7,20c0-2.757,2.243-5,5-5c2.451,0,4.522,1.755,4.925,4.173
		c0.081,0.483,0.553,0.828,1.042,0.828c1.378-0.048,2.585,0.918,2.927,2.26c0.113,0.443,0.513,0.753,0.969,0.753
		c0.035,0,0.111-0.006,0.176-0.014C24.227,23.021,26,24.808,26,27c0,2.206-1.794,4-4,4H7C4.243,31,2,28.757,2,26z"/>
	<path d="M13,26h2c0-2.757-2.243-5-5-5v2C11.654,23,13,24.346,13,26z"/>
	<path d="M43,20h15c3.309,0,6-2.691,6-6c0-3.112-2.382-5.679-5.419-5.972c-0.683-1.597-2.148-2.727-3.863-2.977
		C53.867,2.081,51.159,0,48,0c-3.619,0-6.605,2.76-6.964,6.285C38.074,7.143,36,9.848,36,13C36,16.859,39.14,20,43,20z
		 M42.169,8.075C42.651,7.994,43,7.488,43,7c0-2.757,2.243-5,5-5c2.451,0,4.522,1.755,4.925,4.173C53.007,6.667,53.5,7,54,7
		c1.364,0,2.554,0.93,2.894,2.261c0.113,0.443,0.513,0.753,0.969,0.753c0.036,0.001,0.112-0.006,0.176-0.014
		C60.227,10.021,62,11.808,62,14c0,2.206-1.794,4-4,4H43c-2.757,0-5-2.243-5-5C38,10.551,39.753,8.479,42.169,8.075z"/>
	<path d="M49,12h2c0-2.757-2.243-5-5-5v2C47.654,9,49,10.346,49,12z"/>
	<path d="M28.581,52.028c-0.683-1.597-2.148-2.727-3.863-2.977C23.867,46.081,21.159,44,18,44c-3.619,0-6.605,2.76-6.964,6.285
		C8.074,51.143,6,53.848,6,57c0,3.859,3.14,7,7,7h15c3.309,0,6-2.691,6-6C34,54.888,31.618,52.321,28.581,52.028z M28,62H13
		c-2.757,0-5-2.243-5-5c0-2.449,1.753-4.521,4.169-4.925C12.651,51.994,13,51.488,13,51c0-2.757,2.243-5,5-5
		c2.451,0,4.522,1.755,4.925,4.173C23.007,50.667,23.5,51,24,51c1.364,0,2.554,0.93,2.894,2.261
		c0.113,0.443,0.513,0.753,0.969,0.753c0.035,0.001,0.111-0.006,0.176-0.014C30.227,54.021,32,55.808,32,58
		C32,60.206,30.206,62,28,62z"/>
	<path d="M16,52v2c1.654,0,3,1.346,3,3h2C21,54.243,18.757,52,16,52z"/>
	<path d="M10.707,36.293l-1.414,1.414l3,3C12.488,40.902,12.744,41,13,41s0.512-0.098,0.707-0.293l3-3l-1.414-1.414L13,38.586
		L10.707,36.293z M25,38.586l-2.293-2.293l-1.414,1.414l3,3C24.488,40.902,24.744,41,25,41s0.512-0.098,0.707-0.293l3-3
		l-1.414-1.414L25,38.586z"/>
	<path d="M26,14c2.757,0,5-2.243,5-5s-2.243-5-5-5s-5,2.243-5,5S23.243,14,26,14z M26,6c1.654,0,3,1.346,3,3s-1.346,3-3,3
		s-3-1.346-3-3S24.346,6,26,6z M25,0h2v2h-2V0z M25,16h2v2h-2V16z M33,8h2v2h-2V8z M17,8h2v2h-2V8z M33.07,14.655l-1.414,1.414
		l-1.414-1.414l1.414-1.414L33.07,14.655z M21.757,3.342l-1.414,1.414l-1.414-1.414l1.414-1.414L21.757,3.342z M21.757,14.658
		l-1.414,1.414l-1.414-1.414l1.414-1.414L21.757,14.658z M33.071,3.343l-1.414,1.414l-1.414-1.414l1.414-1.414L33.071,3.343z"/>
	<rect x="46" y="58" width="2" height="2"/>
	<rect x="50" y="58" width="2" height="2"/>
	<rect x="54" y="58" width="2" height="2"/>
	<rect x="54" y="54" width="2" height="2"/>
	<rect x="58" y="54" width="2" height="2"/>
	<rect x="62" y="54" width="2" height="2"/>
	<rect x="42" y="58" width="2" height="2"/>
	<rect x="54" y="62" width="2" height="2"/>
	<rect x="58" y="62" width="2" height="2"/>
	<rect x="62" y="62" width="2" height="2"/>
	<rect x="50" y="62" width="2" height="2"/>
	<rect width="2" height="2"/>
	<rect x="4" width="2" height="2"/>
	<rect x="8" width="2" height="2"/>
	<rect y="4" width="2" height="2"/>
	<rect x="4" y="4" width="2" height="2"/>
	<rect x="8" y="4" width="2" height="2"/>
	<rect x="46" y="22" width="2" height="2"/>
	<rect x="50" y="22" width="2" height="2"/>
	<rect x="54" y="22" width="2" height="2"/>
	<rect x="42" y="22" width="2" height="2"/>
	<rect x="54" y="26" width="2" height="2"/>
	<rect x="58" y="26" width="2" height="2"/>
	<rect x="62" y="26" width="2" height="2"/>
	<rect x="50" y="26" width="2" height="2"/>
</g>
<g>
</g>
<g>
</g>
<g>
</g>
<g>
</g>
<g>
</g>
<g>
</g>
<g>
</g>
<g>
</g>
<g>
</g>
<g>
</g>
<g>
</g>
<g>
</g>
<g>
</g>
<g>
</g>
<g>
</g>
</svg>
