<svg width="90" height="90" viewBox="0 0 90 90" fill="none" xmlns="http://www.w3.org/2000/svg">
<g clip-path="url(#clip0_1_2)">
<g clip-path="url(#clip1_1_2)">
<path d="M76.1789 24.9883H45.3445C41.8766 24.9883 39.0465 27.8453 39.0465 31.3672V47.8895C35.902 50.0098 33.9883 53.5945 33.9883 57.4758C33.9883 63.8367 39.0824 69.0117 45.3445 69.0117H76.1789C77.1941 69.0117 78.0117 68.1941 78.0117 67.1789V26.8211C78.0117 25.8059 77.1941 24.9883 76.1789 24.9883V24.9883ZM45.3445 65.3461C41.1039 65.3461 37.6539 61.8152 37.6539 57.4848C37.6539 54.5648 39.2262 51.9055 41.7598 50.5309C42.3527 50.2074 42.7211 49.5875 42.7211 48.9137V31.3672C42.7211 29.8758 43.898 28.6629 45.3445 28.6629C46.791 28.6629 47.968 29.8758 47.968 31.3672V48.9137C47.968 49.5875 48.3363 50.2074 48.9293 50.5309C51.4629 51.8965 53.0352 54.5648 53.0352 57.4848C53.0352 61.8152 49.5852 65.3461 45.3445 65.3461V65.3461ZM74.3461 65.3461H53.6461C55.5418 63.2887 56.7008 60.5215 56.7008 57.4848C56.7008 53.5945 54.7871 50.0187 51.6336 47.8895V31.3672C51.6336 30.3969 51.418 29.4805 51.0406 28.6629H74.3371V65.3461H74.3461Z" fill="black"/>
<path d="M60.3035 40.8906H62.882V43.55C62.882 44.5652 63.6996 45.3828 64.7148 45.3828C65.7301 45.3828 66.5477 44.5652 66.5477 43.55V40.8906H69.1262C70.1414 40.8906 70.959 40.073 70.959 39.0578C70.959 38.0426 70.1414 37.225 69.1262 37.225H66.5477V34.5656C66.5477 33.5504 65.7301 32.7328 64.7148 32.7328C63.6996 32.7328 62.882 33.5504 62.882 34.5656V37.225H60.3035C59.2883 37.225 58.4707 38.0426 58.4707 39.0578C58.4707 40.073 59.2883 40.8906 60.3035 40.8906Z" fill="black"/>
<path d="M69.1352 57.4848H61.2199C60.2047 57.4848 59.3871 58.3023 59.3871 59.3176C59.3871 60.3328 60.2047 61.1504 61.2199 61.1504H69.1352C70.1504 61.1504 70.968 60.3328 70.968 59.3176C70.968 58.3113 70.1414 57.4848 69.1352 57.4848V57.4848Z" fill="black"/>
</g>
<path d="M21.9831 34.78C24.955 34.78 27.373 32.3624 27.373 29.3905C27.373 26.4182 24.955 24 21.9831 24C19.0109 24 16.593 26.4182 16.593 29.3905C16.593 32.3624 19.0109 34.78 21.9831 34.78ZM21.9831 26.6334C23.503 26.6334 24.7396 27.8702 24.7396 29.3905C24.7396 30.9102 23.503 32.1466 21.9831 32.1466C20.463 32.1466 19.2263 30.9102 19.2263 29.3905C19.2263 27.8702 20.463 26.6334 21.9831 26.6334Z" fill="black"/>
<path d="M24.0662 36.0985H19.9335C17.0336 36.0985 14.6744 38.4578 14.6744 41.3581V50.221C14.6744 51.8904 15.4636 53.4349 16.7752 54.4211V68.6831C16.7752 69.4105 17.3647 69.9998 18.0919 69.9998C18.819 69.9998 19.4086 69.4105 19.4086 68.6831V53.7051C19.4086 53.1997 19.1236 52.7613 18.7058 52.5406C17.8435 52.0802 17.3078 51.1916 17.3078 50.221V41.3581C17.3078 39.91 18.4857 38.7319 19.9335 38.7319H24.0662C25.5142 38.7319 26.692 39.91 26.692 41.3581V50.221C26.692 51.1918 26.1558 52.0805 25.2926 52.5412C24.8753 52.762 24.5907 53.2 24.5907 53.7051V68.6831C24.5907 69.4105 25.1803 69.9998 25.9074 69.9998C26.6346 69.9998 27.2241 69.4105 27.2241 68.6831V54.4209C28.5361 53.4349 29.3254 51.8902 29.3254 50.221V41.3581C29.3254 38.458 26.9662 36.0985 24.0662 36.0985Z" fill="black"/>
</g>
<defs>
<clipPath id="clip0_1_2">
<rect width="90" height="90" fill="white"/>
</clipPath>
<clipPath id="clip1_1_2">
<rect width="46" height="46" fill="white" transform="translate(33 24)"/>
</clipPath>
</defs>
</svg>
