<svg width="70" height="70" viewBox="0 0 70 70" fill="none" xmlns="http://www.w3.org/2000/svg">
<g clip-path="url(#clip0_1_3)">
<path d="M37.2498 0.932007C36.6287 0.310484 35.8144 -2.80973e-06 35.0001 -2.88092e-06C34.1858 -2.95211e-06 33.3714 0.310483 32.7502 0.932007L24.7956 8.88658C23.8856 9.79658 23.6134 11.1651 24.1057 12.3542C24.5983 13.5431 25.7585 14.3184 27.0453 14.3184L31.8183 14.3184L31.8183 66.8181C31.8183 68.5754 33.2429 70 35.0001 70C36.7574 70 38.182 68.5754 38.182 66.8181L38.182 14.3181L42.9547 14.3181C44.2416 14.3181 45.402 13.5428 45.8943 12.3539C46.3866 11.165 46.1144 9.79631 45.2044 8.88631L37.2498 0.932007Z" fill="#EB3D3D"/>
</g>
<defs>
<clipPath id="clip0_1_3">
<rect width="70" height="70" fill="white" transform="translate(70 70) rotate(-180)"/>
</clipPath>
</defs>
</svg>
