<svg width="70" height="70" viewBox="0 0 70 70" fill="none" xmlns="http://www.w3.org/2000/svg">
<path d="M32.7502 69.068C33.3713 69.6895 34.1856 70 34.9999 70C35.8142 70 36.6286 69.6895 37.2498 69.068L45.2044 61.1134C46.1144 60.2034 46.3866 58.8349 45.8943 57.6458C45.4017 56.4569 44.2415 55.6816 42.9547 55.6816H38.1817V3.18186C38.1817 1.42461 36.7571 0 34.9999 0C33.2426 0 31.818 1.42461 31.818 3.18186V55.6819H27.0453C25.7584 55.6819 24.598 56.4572 24.1057 57.6461C23.6134 58.835 23.8856 60.2037 24.7956 61.1137L32.7502 69.068Z" fill="#3D6DEB"/>
</svg>
